<?xml version="1.0" encoding="UTF-8" standalone="no"?>
<svg
   xmlns:dc="http://purl.org/dc/elements/1.1/"
   xmlns:cc="http://creativecommons.org/ns#"
   xmlns:rdf="http://www.w3.org/1999/02/22-rdf-syntax-ns#"
   xmlns:svg="http://www.w3.org/2000/svg"
   xmlns="http://www.w3.org/2000/svg"
   id="svg8"
   version="1.1"
   viewBox="0 0 62.512428 33.403755"
   height="33.403755mm"
   width="62.512428mm">
  <defs
     id="defs2">
    <rect
       x="212.73569"
       y="148.59428"
       width="227.70203"
       height="77.236954"
       id="rect5195" />
    <rect
       x="71.090065"
       y="68.417511"
       width="66.279465"
       height="66.012207"
       id="rect4858" />
    <rect
       x="87.927193"
       y="242.13383"
       width="124.54125"
       height="179.3287"
       id="rect4806" />
    <rect
       x="188.41541"
       y="50.511364"
       width="107.97138"
       height="45.70076"
       id="rect4738" />
    <rect
       x="83.91835"
       y="124.8085"
       width="113.85101"
       height="65.477692"
       id="rect4702" />
    <rect
       x="73.495369"
       y="188.94992"
       width="69.486534"
       height="66.813972"
       id="rect4696" />
    <rect
       x="121.70833"
       y="87.3125"
       width="52.916668"
       height="31.75"
       id="rect4690" />
    <rect
       x="76.729164"
       y="127"
       width="95.25"
       height="66.145836"
       id="rect4654" />
    <rect
       id="rect90"
       height="11.22532"
       width="27.261492"
       y="42.362221"
       x="127.48756" />
    <rect
       id="rect42"
       height="90.714287"
       width="144.3869"
       y="177.6488"
       x="61.988094" />
    <rect
       id="rect32"
       height="18.142857"
       width="71.059525"
       y="194.27975"
       x="52.160713" />
    <rect
       id="rect26"
       height="34.773811"
       width="94.494049"
       y="182.18452"
       x="38.55357" />
  </defs>
  <metadata
     id="metadata5">
    <rdf:RDF>
      <cc:Work
         rdf:about="">
        <dc:format>image/svg+xml</dc:format>
        <dc:type
           rdf:resource="http://purl.org/dc/dcmitype/StillImage" />
        <dc:title></dc:title>
      </cc:Work>
    </rdf:RDF>
  </metadata>
  <g
     id="layer1"
     transform="translate(-107.9841,-52.517399)">
    <text
       style="font-style:normal;font-weight:normal;font-size:10.5833px;line-height:1.25;font-family:sans-serif;white-space:pre;shape-inside:url(#rect26);fill:#000000;fill-opacity:1;stroke:none;"
       id="text24"
       xml:space="preserve" />
    <text
       style="font-style:normal;font-weight:normal;font-size:10.5833px;line-height:1.25;font-family:sans-serif;white-space:pre;shape-inside:url(#rect32);fill:#000000;fill-opacity:1;stroke:none;"
       id="text30"
       xml:space="preserve" />
    <text
       id="text38"
       y="204.86308"
       x="93.738091"
       style="font-style:normal;font-weight:normal;font-size:10.5833px;line-height:1.25;font-family:sans-serif;fill:#000000;fill-opacity:1;stroke:none;stroke-width:0.264583"
       xml:space="preserve"><tspan
         style="stroke-width:0.264583"
         y="204.86308"
         x="93.738091"
         id="tspan36" /></text>
    <text
       style="font-style:normal;font-weight:normal;font-size:10.5833px;line-height:1.25;font-family:sans-serif;white-space:pre;shape-inside:url(#rect42);fill:#000000;fill-opacity:1;stroke:none;"
       id="text40"
       xml:space="preserve" />
    <path
       transform="scale(0.26458333)"
       id="path64"
       d=""
       style="fill:#a0a0a0;stroke:none;stroke-width:0.357143" />
    <path
       transform="scale(0.26458333)"
       id="path66"
       d=""
       style="fill:#a0a0a0;stroke:none;stroke-width:0.357143" />
    <path
       transform="scale(0.26458333)"
       id="path76"
       d=""
       style="fill:#000000;stroke-width:0.357143" />
    <path
       transform="scale(0.26458333)"
       id="path78"
       d=""
       style="fill:#000000;stroke-width:0.357143" />
    <text
       style="font-size:10.5833px;line-height:1.25;font-family:'Sitka Text';-inkscape-font-specification:'Sitka Text';white-space:pre;shape-inside:url(#rect90);"
       id="text88"
       xml:space="preserve" />
    <text
       xml:space="preserve"
       id="text4652"
       style="font-size:10.5833px;line-height:1.25;font-family:'Sitka Text';-inkscape-font-specification:'Sitka Text';white-space:pre;shape-inside:url(#rect4654);" />
    <text
       xml:space="preserve"
       id="text4688"
       style="font-size:10.5833px;line-height:1.25;font-family:'Sitka Text';-inkscape-font-specification:'Sitka Text';white-space:pre;shape-inside:url(#rect4690);" />
    <text
       xml:space="preserve"
       id="text4694"
       style="font-size:10.5833px;line-height:1.25;font-family:'Sitka Text';-inkscape-font-specification:'Sitka Text';letter-spacing:-0.238125px;white-space:pre;shape-inside:url(#rect4696);" />
    <text
       xml:space="preserve"
       id="text4700"
       style="font-size:10.5833px;line-height:1.25;font-family:'Sitka Text';-inkscape-font-specification:'Sitka Text';letter-spacing:-0.238125px;white-space:pre;shape-inside:url(#rect4702);" />
    <text
       xml:space="preserve"
       id="text4736"
       style="font-size:10.5833px;line-height:1.25;font-family:'Sitka Text';-inkscape-font-specification:'Sitka Text';letter-spacing:-0.238125px;white-space:pre;shape-inside:url(#rect4738);" />
    <text
       xml:space="preserve"
       id="text4804"
       style="font-size:10.5833px;line-height:1.25;font-family:'Sitka Text';-inkscape-font-specification:'Sitka Text';letter-spacing:-0.238125px;white-space:pre;shape-inside:url(#rect4806);" />
    <text
       xml:space="preserve"
       id="text4856"
       style="font-size:10.5833px;line-height:1.25;font-family:'Sitka Text';-inkscape-font-specification:'Sitka Text';letter-spacing:-0.238125px;white-space:pre;shape-inside:url(#rect4858);" />
    <text
       xml:space="preserve"
       id="text5193"
       style="font-size:10.5833px;line-height:1.25;font-family:'Sitka Text';-inkscape-font-specification:'Sitka Text';letter-spacing:-0.238125px;white-space:pre;shape-inside:url(#rect5195);" />
    <path
       id="path60-1-7-3-5-1-5-3-4"
       d="m 143.35463,84.561834 c -3.41046,-1.138221 -3.16222,-0.804367 -7.32731,-9.854104 -3.54811,-7.709185 -3.73079,-8.045446 -4.43045,-8.155413 -0.54206,-0.08518 -0.75215,-0.25996 -0.81687,-0.679497 -0.0479,-0.310637 -0.19514,-0.683127 -0.32717,-0.827758 -0.15576,-0.170621 -0.13686,-0.320294 0.0538,-0.426231 0.18878,-0.104886 0.24189,-0.504229 0.14853,-1.116634 -0.0884,-0.579423 -0.0335,-1.053912 0.13983,-1.209733 0.21229,-0.190848 0.2097,-0.405334 -0.0101,-0.839074 -0.26524,-0.523342 -0.39155,-0.567043 -1.24032,-0.429089 -0.51974,0.08449 -0.97482,0.175381 -1.01129,0.202012 -0.0365,0.02662 0.0857,0.395337 0.27144,0.819326 0.19681,0.449233 0.29299,1.269602 0.23049,1.9661 l -0.10725,1.195202 -0.85705,-0.144534 c -0.96756,-0.163183 -1.08346,0.088 -0.47912,1.038364 0.73112,1.149782 0.1481,7.325139 -0.76946,8.150013 -0.36195,0.325385 -2.07786,0.410308 -3.87559,0.191808 -0.5455,-0.06626 -0.65772,0.05959 -1.0078,1.130896 -0.38672,1.183357 -1.01787,1.795754 -1.5475,1.501492 -0.32375,-0.179882 -0.11448,-1.45726 0.5641,-3.443119 0.44479,-1.301705 0.54125,-1.415621 1.19859,-1.415621 1.08474,0 1.36775,-0.450835 1.01998,-1.624825 -0.72438,-2.445331 -2.22352,-2.341457 -3.94151,0.273081 -0.34414,0.523728 -0.6208,0.672246 -1.25226,0.672246 -0.58997,0 -0.85416,0.1236 -0.97089,0.454215 -0.0882,0.249827 -0.4196,0.73397 -0.73646,1.07588 -0.31685,0.341901 -0.64991,0.982875 -0.74011,1.424378 -0.0902,0.441506 -0.55031,1.358824 -1.02243,2.038488 -0.47211,0.679669 -1.0666,1.536978 -1.32106,1.905148 -0.82829,1.198418 -3.53732,2.757493 -4.02679,2.317473 -0.34234,-0.307756 0.50082,-1.6763 1.37471,-2.231343 0.87883,-0.558173 0.97371,-0.729523 1.26407,-2.283055 0.17267,-0.923773 0.49748,-1.915147 0.7218,-2.203067 0.22432,-0.287919 0.50425,-0.987291 0.62205,-1.554165 0.11781,-0.566883 0.42142,-1.240498 0.67469,-1.49694 0.25327,-0.25644 0.66422,-0.97588 0.91324,-1.598748 0.249,-0.622868 0.84877,-1.820376 1.33281,-2.661127 0.76308,-1.325402 0.83408,-1.578418 0.53408,-1.903139 -0.24618,-0.266457 -0.34601,-1.078421 -0.34601,-2.814189 0,-2.950947 0.21312,-3.299644 2.78007,-4.548669 1.68838,-0.821532 1.7292,-0.862607 1.78246,-1.794135 0.0756,-1.322338 0.77769,-2.103851 1.94309,-2.162919 1.10403,-0.05599 1.85676,0.643833 2.08742,1.940601 0.13881,0.780372 0.19107,0.819288 0.98786,0.735662 0.51439,-0.05401 1.21499,0.08518 1.80297,0.358062 0.52892,0.245492 1.77211,0.666085 2.76266,0.934639 0.99055,0.268561 1.94117,0.640135 2.11249,0.825712 0.17133,0.185584 0.36817,1.049406 0.43742,1.919607 0.0692,0.8702 0.23898,1.582185 0.37716,1.582185 0.41178,0 0.0707,3.28818 -0.40949,3.946919 -0.41125,0.564253 -0.35904,0.710107 2.47742,6.92018 1.59363,3.489081 3.22186,6.986818 3.61827,7.772746 l 0.72073,1.428967 2.69889,0.282036 c 4.01166,0.419213 4.39665,0.626096 4.07082,2.187485 -0.14116,0.676439 -0.2638,0.789329 -0.84652,0.779245 -0.37479,-0.007 -1.4112,-0.25536 -2.30314,-0.55304 z"
       style="fill:#808080;fill-opacity:1;stroke:none;stroke-width:0.238885;stroke-opacity:1" />
    <g
       style="font-style:normal;font-variant:normal;font-weight:normal;font-stretch:normal;font-size:9.17223px;line-height:0;font-family:'Franklin Gothic Medium';-inkscape-font-specification:'Franklin Gothic Medium, ';letter-spacing:-0.354542px;fill:#b70000;fill-opacity:1;stroke:none;stroke-width:0.264583;stroke-opacity:1"
       id="text82-3-9-1-0-1-2-5-8"
       aria-label="ISMA">
      <path
         id="path1857"
         style="font-style:normal;font-variant:normal;font-weight:normal;font-stretch:normal;font-size:9.17223px;line-height:0.4;font-family:'Bloc Tek';-inkscape-font-specification:'Bloc Tek';fill:#b70000;fill-opacity:1;stroke:none;stroke-width:0.264583;stroke-opacity:1"
         d="m 137.09541,70.840668 v -5.835652 h 2.50132 v 5.835652 z m 0,-6.668677 v -2.503553 h 2.50132 v 2.503553 z" />
      <path
         id="path1859"
         style="font-style:normal;font-variant:normal;font-weight:normal;font-stretch:normal;font-size:9.17223px;line-height:0.4;font-family:'Bloc Tek';-inkscape-font-specification:'Bloc Tek';fill:#b70000;fill-opacity:1;stroke:none;stroke-width:0.264583;stroke-opacity:1"
         d="m 140.07297,70.840668 v -2.501314 h 6.66868 v -0.833025 h -5.41914 l -1.24954,-1.251776 v -1.249537 h 7.92045 l 1.25178,1.249537 v 3.336578 l -1.25178,1.249537 z m 0,-6.668677 v -1.251777 l 1.24954,-1.251776 h 7.92269 v 2.503553 z" />
      <path
         id="path1861"
         style="font-style:normal;font-variant:normal;font-weight:normal;font-stretch:normal;font-size:9.17223px;line-height:0.4;font-family:'Bloc Tek';-inkscape-font-specification:'Bloc Tek';fill:#b70000;fill-opacity:1;stroke:none;stroke-width:0.264583;stroke-opacity:1"
         d="m 149.73264,70.840668 v -5.835652 h 2.50131 v 5.835652 z m 3.33434,0 v -5.835652 h 2.50131 v 5.835652 z m 3.33434,0 v -6.668677 h -6.66868 v -1.251777 l 1.24954,-1.251776 h 7.92269 v 9.17223 z" />
      <path
         id="path1863"
         style="font-style:normal;font-variant:normal;font-weight:normal;font-stretch:normal;font-size:9.17223px;line-height:0.4;font-family:'Bloc Tek';-inkscape-font-specification:'Bloc Tek';fill:#b70000;fill-opacity:1;stroke:none;stroke-width:0.264583;stroke-opacity:1"
         d="m 159.39231,70.840668 v -5.835652 h 6.66868 v -0.833025 h -6.66868 v -1.251777 l 1.24954,-1.251776 h 6.67091 l 1.25178,1.251776 v 7.920454 h -2.50355 v -3.334339 h -4.16737 v 3.334339 z" />
    </g>
    <g
       style="font-size:3.175px;line-height:1.25;font-family:'Sitka Text';-inkscape-font-specification:'Sitka Text';letter-spacing:-0.0978958px;fill:#ffffff;fill-opacity:1;stroke:none;stroke-width:0.264583;stroke-opacity:1"
       id="text96-2-4-4-7-2-1-1-8-0"
       aria-label="hockey management">
      <path
         id="path1866"
         style="font-style:normal;font-variant:normal;font-weight:bold;font-stretch:normal;font-size:3.175px;font-family:Tahoma;-inkscape-font-specification:'Tahoma Bold';fill:#ffffff;fill-opacity:1;stroke:none;stroke-width:0.264583;stroke-opacity:1"
         d="m 138.72592,73.985695 h -0.54571 v -0.863513 q 0,-0.10542 -0.009,-0.20929 -0.008,-0.10542 -0.031,-0.155029 -0.0279,-0.05891 -0.0806,-0.08372 -0.0527,-0.02636 -0.14108,-0.02636 -0.0667,0 -0.13487,0.02481 -0.0682,0.0248 -0.14573,0.07906 v 1.234033 h -0.5426 v -2.412256 h 0.5426 v 0.863513 q 0.13333,-0.113171 0.2589,-0.176733 0.12712,-0.06356 0.2806,-0.06356 0.26665,0 0.40773,0.168982 0.14108,0.167431 0.14108,0.486792 z" />
      <path
         id="path1868"
         style="font-style:normal;font-variant:normal;font-weight:bold;font-stretch:normal;font-size:3.175px;font-family:Tahoma;-inkscape-font-specification:'Tahoma Bold';fill:#ffffff;fill-opacity:1;stroke:none;stroke-width:0.264583;stroke-opacity:1"
         d="m 140.70231,73.115981 q 0,0.429431 -0.23564,0.677478 -0.2341,0.246496 -0.66353,0.246496 -0.42633,0 -0.66352,-0.246496 -0.23565,-0.248047 -0.23565,-0.677478 0,-0.434082 0.23565,-0.679029 0.23719,-0.246496 0.66352,-0.246496 0.42788,0 0.66353,0.248047 0.23564,0.246496 0.23564,0.677478 z m -0.55655,0.0031 q 0,-0.155029 -0.0264,-0.257349 -0.0248,-0.103869 -0.0698,-0.165881 -0.0481,-0.06511 -0.10852,-0.08992 -0.0605,-0.02636 -0.13798,-0.02636 -0.0729,0 -0.13177,0.02326 -0.0589,0.0217 -0.10852,0.08527 -0.0465,0.06046 -0.0744,0.165881 -0.0279,0.10542 -0.0279,0.2651 0,0.15968 0.0264,0.258899 0.0264,0.09767 0.0682,0.15658 0.0434,0.06046 0.10853,0.08837 0.0651,0.02791 0.14417,0.02791 0.0651,0 0.13178,-0.02791 0.0682,-0.02791 0.10852,-0.08372 0.0481,-0.06666 0.0729,-0.159681 0.0248,-0.09457 0.0248,-0.260449 z" />
      <path
         id="path1870"
         style="font-style:normal;font-variant:normal;font-weight:bold;font-stretch:normal;font-size:3.175px;font-family:Tahoma;-inkscape-font-specification:'Tahoma Bold';fill:#ffffff;fill-opacity:1;stroke:none;stroke-width:0.264583;stroke-opacity:1"
         d="m 141.74698,74.032204 q -0.21549,0 -0.39532,-0.05426 -0.17829,-0.05426 -0.31006,-0.167431 -0.13023,-0.113172 -0.20309,-0.283704 -0.0729,-0.172082 -0.0729,-0.404626 0,-0.249597 0.0791,-0.424781 0.0791,-0.175183 0.21394,-0.288354 0.13023,-0.108521 0.30541,-0.15968 0.17673,-0.05271 0.36742,-0.05271 0.14418,0 0.28835,0.03411 0.14418,0.03256 0.28991,0.10542 v 0.465088 h -0.0698 q -0.0325,-0.03101 -0.0806,-0.06821 -0.0465,-0.03721 -0.10232,-0.06821 -0.0589,-0.03256 -0.13332,-0.05426 -0.0744,-0.02325 -0.16589,-0.02325 -0.20774,0 -0.32246,0.145727 -0.11317,0.144177 -0.11317,0.389124 0,0.261999 0.12092,0.390674 0.12248,0.128674 0.32402,0.128674 0.10231,0 0.17983,-0.02326 0.0775,-0.02325 0.13332,-0.05581 0.0543,-0.03256 0.093,-0.06666 0.0388,-0.03566 0.0667,-0.06356 h 0.0698 v 0.465088 q -0.0465,0.02015 -0.10852,0.04651 -0.0605,0.02635 -0.12403,0.04341 -0.0791,0.0217 -0.14882,0.03256 -0.0682,0.0124 -0.18139,0.0124 z" />
      <path
         id="path1872"
         style="font-style:normal;font-variant:normal;font-weight:bold;font-stretch:normal;font-size:3.175px;font-family:Tahoma;-inkscape-font-specification:'Tahoma Bold';fill:#ffffff;fill-opacity:1;stroke:none;stroke-width:0.264583;stroke-opacity:1"
         d="m 144.21172,73.985695 h -0.64492 l -0.47129,-0.758093 -0.0837,0.113171 v 0.644922 h -0.5426 v -2.412256 h 0.5426 v 1.351856 l 0.5147,-0.680579 h 0.64027 l -0.60926,0.750342 z" />
      <path
         id="path1874"
         style="font-style:normal;font-variant:normal;font-weight:bold;font-stretch:normal;font-size:3.175px;font-family:Tahoma;-inkscape-font-specification:'Tahoma Bold';fill:#ffffff;fill-opacity:1;stroke:none;stroke-width:0.264583;stroke-opacity:1"
         d="m 145.17888,74.032204 q -0.493,0 -0.75655,-0.235645 -0.262,-0.235644 -0.262,-0.671277 0,-0.42633 0.24495,-0.680578 0.24495,-0.254248 0.68523,-0.254248 0.39997,0 0.60151,0.21549 0.20154,0.215491 0.20154,0.617017 V 73.2183 h -1.18907 q 0.008,0.120923 0.0512,0.203088 0.0434,0.08062 0.11472,0.128675 0.0698,0.04806 0.16278,0.06976 0.093,0.02015 0.20309,0.02015 0.0946,0 0.18603,-0.02015 0.0915,-0.0217 0.16743,-0.05581 0.0667,-0.02945 0.12248,-0.06356 0.0574,-0.03411 0.093,-0.06046 h 0.0574 v 0.448034 q -0.0667,0.02636 -0.12248,0.04961 -0.0543,0.0217 -0.15038,0.04496 -0.0884,0.02325 -0.18293,0.03566 -0.093,0.01395 -0.22789,0.01395 z m 0.17983,-1.141016 q -0.005,-0.172082 -0.0806,-0.261999 -0.0744,-0.08992 -0.22944,-0.08992 -0.15813,0 -0.24805,0.09457 -0.0884,0.09457 -0.0977,0.257349 z" />
      <path
         id="path1876"
         style="font-style:normal;font-variant:normal;font-weight:bold;font-stretch:normal;font-size:3.175px;font-family:Tahoma;-inkscape-font-specification:'Tahoma Bold';fill:#ffffff;fill-opacity:1;stroke:none;stroke-width:0.264583;stroke-opacity:1"
         d="m 147.69942,72.244716 -0.87901,2.3797 h -0.58291 l 0.26355,-0.680579 -0.63872,-1.699121 h 0.57051 l 0.36586,1.091406 0.34262,-1.091406 z" />
      <path
         id="path1878"
         style="font-style:normal;font-variant:normal;font-weight:bold;font-stretch:normal;font-size:3.175px;font-family:Tahoma;-inkscape-font-specification:'Tahoma Bold';fill:#ffffff;fill-opacity:1;stroke:none;stroke-width:0.264583;stroke-opacity:1"
         d="m 150.71894,73.985695 v -0.869714 q 0,-0.128675 -0.005,-0.217041 -0.005,-0.08837 -0.0279,-0.144178 -0.0233,-0.05581 -0.0729,-0.08061 -0.0481,-0.02636 -0.13642,-0.02636 -0.062,0 -0.12248,0.02791 -0.0605,0.02635 -0.13177,0.07596 v 1.234033 h -0.54571 v -0.869714 q 0,-0.127124 -0.006,-0.215491 -0.005,-0.08992 -0.0279,-0.145728 -0.0233,-0.05581 -0.0729,-0.08061 -0.048,-0.02636 -0.13487,-0.02636 -0.0667,0 -0.13023,0.03101 -0.0636,0.03101 -0.12402,0.07286 v 1.234033 h -0.5426 v -1.740979 h 0.5426 v 0.192236 q 0.13333,-0.113171 0.25115,-0.176733 0.11782,-0.06356 0.2651,-0.06356 0.15968,0 0.2806,0.07596 0.12092,0.07596 0.18449,0.226343 0.15658,-0.145728 0.29455,-0.223242 0.13953,-0.07906 0.28216,-0.07906 0.12092,0 0.21704,0.03876 0.0961,0.03876 0.16278,0.116272 0.0729,0.08372 0.10852,0.199988 0.0372,0.114722 0.0372,0.300757 v 1.133264 z" />
      <path
         id="path1880"
         style="font-style:normal;font-variant:normal;font-weight:bold;font-stretch:normal;font-size:3.175px;font-family:Tahoma;-inkscape-font-specification:'Tahoma Bold';fill:#ffffff;fill-opacity:1;stroke:none;stroke-width:0.264583;stroke-opacity:1"
         d="m 152.52636,73.531459 v -0.362768 q -0.13798,0.01395 -0.22325,0.0248 -0.0853,0.0093 -0.16743,0.03876 -0.0713,0.0248 -0.11162,0.07596 -0.0388,0.04961 -0.0388,0.133325 0,0.122473 0.0651,0.168982 0.0667,0.04496 0.19533,0.04496 0.0713,0 0.14573,-0.03256 0.0744,-0.03256 0.13488,-0.09147 z m 0,0.269751 q -0.0558,0.04651 -0.10077,0.08372 -0.0434,0.03721 -0.11783,0.07441 -0.0729,0.03566 -0.14262,0.05426 -0.0682,0.0186 -0.19224,0.0186 -0.23099,0 -0.38447,-0.15503 -0.15193,-0.155029 -0.15193,-0.390673 0,-0.193787 0.0775,-0.31316 0.0775,-0.119372 0.22325,-0.189135 0.14727,-0.07131 0.35191,-0.09922 0.20464,-0.0279 0.44029,-0.04341 v -0.0093 q 0,-0.144177 -0.10697,-0.198438 -0.10542,-0.05581 -0.31781,-0.05581 -0.0961,0 -0.2248,0.03566 -0.12867,0.03411 -0.25114,0.08837 h -0.0465 v -0.420129 q 0.0806,-0.02325 0.26045,-0.05426 0.17983,-0.03256 0.36276,-0.03256 0.44959,0 0.65423,0.150378 0.20619,0.148828 0.20619,0.455786 v 1.184424 h -0.5395 z" />
      <path
         id="path1882"
         style="font-style:normal;font-variant:normal;font-weight:bold;font-stretch:normal;font-size:3.175px;font-family:Tahoma;-inkscape-font-specification:'Tahoma Bold';fill:#ffffff;fill-opacity:1;stroke:none;stroke-width:0.264583;stroke-opacity:1"
         d="m 155.0035,73.985695 h -0.54571 v -0.863513 q 0,-0.10542 -0.009,-0.20929 -0.008,-0.10542 -0.031,-0.155029 -0.0279,-0.05891 -0.0806,-0.08372 -0.0527,-0.02636 -0.14108,-0.02636 -0.0667,0 -0.13487,0.02481 -0.0682,0.0248 -0.14573,0.07906 v 1.234033 h -0.5426 v -1.740979 h 0.5426 v 0.192236 q 0.13333,-0.113171 0.2589,-0.176733 0.12712,-0.06356 0.2806,-0.06356 0.26665,0 0.40773,0.168982 0.14108,0.167431 0.14108,0.486792 z" />
      <path
         id="path1884"
         style="font-style:normal;font-variant:normal;font-weight:bold;font-stretch:normal;font-size:3.175px;font-family:Tahoma;-inkscape-font-specification:'Tahoma Bold';fill:#ffffff;fill-opacity:1;stroke:none;stroke-width:0.264583;stroke-opacity:1"
         d="m 156.26831,73.531459 v -0.362768 q -0.13798,0.01395 -0.22324,0.0248 -0.0853,0.0093 -0.16744,0.03876 -0.0713,0.0248 -0.11162,0.07596 -0.0387,0.04961 -0.0387,0.133325 0,0.122473 0.0651,0.168982 0.0667,0.04496 0.19533,0.04496 0.0713,0 0.14573,-0.03256 0.0744,-0.03256 0.13488,-0.09147 z m 0,0.269751 q -0.0558,0.04651 -0.10077,0.08372 -0.0434,0.03721 -0.11782,0.07441 -0.0729,0.03566 -0.14263,0.05426 -0.0682,0.0186 -0.19224,0.0186 -0.23099,0 -0.38447,-0.15503 -0.15193,-0.155029 -0.15193,-0.390673 0,-0.193787 0.0775,-0.31316 0.0775,-0.119372 0.22324,-0.189135 0.14728,-0.07131 0.35191,-0.09922 0.20464,-0.0279 0.44029,-0.04341 v -0.0093 q 0,-0.144177 -0.10697,-0.198438 -0.10542,-0.05581 -0.31781,-0.05581 -0.0961,0 -0.22479,0.03566 -0.12868,0.03411 -0.25115,0.08837 h -0.0465 v -0.420129 q 0.0806,-0.02325 0.26045,-0.05426 0.17983,-0.03256 0.36277,-0.03256 0.44958,0 0.65422,0.150378 0.20619,0.148828 0.20619,0.455786 v 1.184424 h -0.5395 z" />
      <path
         id="path1886"
         style="font-style:normal;font-variant:normal;font-weight:bold;font-stretch:normal;font-size:3.175px;font-family:Tahoma;-inkscape-font-specification:'Tahoma Bold';fill:#ffffff;fill-opacity:1;stroke:none;stroke-width:0.264583;stroke-opacity:1"
         d="m 158.15479,73.436891 v -0.789099 q -0.0403,-0.0186 -0.0992,-0.03101 -0.0589,-0.0124 -0.11782,-0.0124 -0.19534,0 -0.29456,0.127124 -0.0977,0.125574 -0.0977,0.351916 0,0.113172 0.0139,0.192237 0.0155,0.07751 0.0558,0.137976 0.0388,0.05891 0.10076,0.08992 0.0636,0.02946 0.16123,0.02946 0.0729,0 0.14263,-0.0248 0.0713,-0.02481 0.13488,-0.07131 z m 0.5426,0.348816 q 0,0.241846 -0.0698,0.410828 -0.0698,0.168982 -0.19069,0.26355 -0.12092,0.09612 -0.2899,0.137976 -0.16899,0.04341 -0.37518,0.04341 -0.17363,0 -0.33021,-0.02326 -0.15503,-0.0217 -0.26975,-0.05116 v -0.435633 h 0.0636 q 0.0403,0.0155 0.0946,0.03411 0.0558,0.0186 0.11162,0.03411 0.0667,0.01705 0.13023,0.02791 0.0636,0.01085 0.13022,0.01085 0.13798,0 0.22944,-0.02946 0.093,-0.02791 0.13953,-0.08062 0.0465,-0.05426 0.0651,-0.128674 0.0186,-0.07286 0.0186,-0.184485 v -0.03256 q -0.0915,0.08061 -0.21239,0.130224 -0.11938,0.04806 -0.2465,0.04806 -0.33796,0 -0.52245,-0.220141 -0.18293,-0.220142 -0.18293,-0.669727 0,-0.204639 0.0558,-0.367419 0.0574,-0.162781 0.15813,-0.277503 0.0961,-0.110071 0.23254,-0.168982 0.13643,-0.06046 0.28371,-0.06046 0.13332,0 0.23874,0.03411 0.10542,0.03411 0.19224,0.09147 l 0.0202,-0.07752 h 0.52555 z" />
      <path
         id="path1888"
         style="font-style:normal;font-variant:normal;font-weight:bold;font-stretch:normal;font-size:3.175px;font-family:Tahoma;-inkscape-font-specification:'Tahoma Bold';fill:#ffffff;fill-opacity:1;stroke:none;stroke-width:0.264583;stroke-opacity:1"
         d="m 159.90484,74.032204 q -0.49299,0 -0.75654,-0.235645 -0.262,-0.235644 -0.262,-0.671277 0,-0.42633 0.24494,-0.680578 0.24495,-0.254248 0.68523,-0.254248 0.39998,0 0.60152,0.21549 0.20154,0.215491 0.20154,0.617017 V 73.2183 h -1.18908 q 0.008,0.120923 0.0512,0.203088 0.0434,0.08062 0.11472,0.128675 0.0698,0.04806 0.16278,0.06976 0.093,0.02015 0.20309,0.02015 0.0946,0 0.18604,-0.02015 0.0915,-0.0217 0.16743,-0.05581 0.0667,-0.02945 0.12247,-0.06356 0.0574,-0.03411 0.093,-0.06046 h 0.0574 v 0.448034 q -0.0667,0.02636 -0.12247,0.04961 -0.0543,0.0217 -0.15038,0.04496 -0.0884,0.02325 -0.18294,0.03566 -0.093,0.01395 -0.22789,0.01395 z m 0.17983,-1.141016 q -0.005,-0.172082 -0.0806,-0.261999 -0.0744,-0.08992 -0.22944,-0.08992 -0.15813,0 -0.24805,0.09457 -0.0884,0.09457 -0.0977,0.257349 z" />
      <path
         id="path1890"
         style="font-style:normal;font-variant:normal;font-weight:bold;font-stretch:normal;font-size:3.175px;font-family:Tahoma;-inkscape-font-specification:'Tahoma Bold';fill:#ffffff;fill-opacity:1;stroke:none;stroke-width:0.264583;stroke-opacity:1"
         d="m 162.88118,73.985695 v -0.869714 q 0,-0.128675 -0.005,-0.217041 -0.005,-0.08837 -0.0279,-0.144178 -0.0233,-0.05581 -0.0729,-0.08061 -0.0481,-0.02636 -0.13643,-0.02636 -0.062,0 -0.12247,0.02791 -0.0605,0.02635 -0.13178,0.07596 v 1.234033 h -0.5457 v -0.869714 q 0,-0.127124 -0.006,-0.215491 -0.005,-0.08992 -0.0279,-0.145728 -0.0233,-0.05581 -0.0729,-0.08061 -0.0481,-0.02636 -0.13488,-0.02636 -0.0667,0 -0.13022,0.03101 -0.0636,0.03101 -0.12403,0.07286 v 1.234033 h -0.5426 v -1.740979 h 0.5426 v 0.192236 q 0.13333,-0.113171 0.25115,-0.176733 0.11782,-0.06356 0.2651,-0.06356 0.15968,0 0.28061,0.07596 0.12092,0.07596 0.18448,0.226343 0.15658,-0.145728 0.29456,-0.223242 0.13952,-0.07906 0.28215,-0.07906 0.12092,0 0.21704,0.03876 0.0961,0.03876 0.16278,0.116272 0.0729,0.08372 0.10852,0.199988 0.0372,0.114722 0.0372,0.300757 v 1.133264 z" />
      <path
         id="path1892"
         style="font-style:normal;font-variant:normal;font-weight:bold;font-stretch:normal;font-size:3.175px;font-family:Tahoma;-inkscape-font-specification:'Tahoma Bold';fill:#ffffff;fill-opacity:1;stroke:none;stroke-width:0.264583;stroke-opacity:1"
         d="m 164.62038,74.032204 q -0.493,0 -0.75655,-0.235645 -0.262,-0.235644 -0.262,-0.671277 0,-0.42633 0.24495,-0.680578 0.24495,-0.254248 0.68523,-0.254248 0.39998,0 0.60151,0.21549 0.20154,0.215491 0.20154,0.617017 V 73.2183 h -1.18907 q 0.008,0.120923 0.0512,0.203088 0.0434,0.08062 0.11472,0.128675 0.0698,0.04806 0.16278,0.06976 0.093,0.02015 0.20309,0.02015 0.0946,0 0.18603,-0.02015 0.0915,-0.0217 0.16743,-0.05581 0.0667,-0.02945 0.12248,-0.06356 0.0574,-0.03411 0.093,-0.06046 h 0.0574 v 0.448034 q -0.0667,0.02636 -0.12248,0.04961 -0.0543,0.0217 -0.15038,0.04496 -0.0884,0.02325 -0.18293,0.03566 -0.093,0.01395 -0.22789,0.01395 z m 0.17983,-1.141016 q -0.005,-0.172082 -0.0806,-0.261999 -0.0744,-0.08992 -0.22945,-0.08992 -0.15813,0 -0.24804,0.09457 -0.0884,0.09457 -0.0977,0.257349 z" />
      <path
         id="path1894"
         style="font-style:normal;font-variant:normal;font-weight:bold;font-stretch:normal;font-size:3.175px;font-family:Tahoma;-inkscape-font-specification:'Tahoma Bold';fill:#ffffff;fill-opacity:1;stroke:none;stroke-width:0.264583;stroke-opacity:1"
         d="m 167.14713,73.985695 h -0.54571 v -0.863513 q 0,-0.10542 -0.009,-0.20929 -0.008,-0.10542 -0.031,-0.155029 -0.0279,-0.05891 -0.0806,-0.08372 -0.0527,-0.02636 -0.14108,-0.02636 -0.0667,0 -0.13487,0.02481 -0.0682,0.0248 -0.14573,0.07906 v 1.234033 h -0.5426 v -1.740979 h 0.5426 v 0.192236 q 0.13333,-0.113171 0.2589,-0.176733 0.12712,-0.06356 0.2806,-0.06356 0.26665,0 0.40773,0.168982 0.14108,0.167431 0.14108,0.486792 z" />
      <path
         id="path1896"
         style="font-style:normal;font-variant:normal;font-weight:bold;font-stretch:normal;font-size:3.175px;font-family:Tahoma;-inkscape-font-specification:'Tahoma Bold';fill:#ffffff;fill-opacity:1;stroke:none;stroke-width:0.264583;stroke-opacity:1"
         d="m 168.11893,74.019801 q -0.33176,0 -0.48369,-0.136425 -0.15038,-0.136426 -0.15038,-0.446485 v -0.813904 h -0.20774 v -0.378271 h 0.20774 v -0.497644 h 0.54261 v 0.497644 h 0.52244 v 0.378271 h -0.52244 v 0.617017 q 0,0.09147 0.002,0.15968 0.002,0.06821 0.0248,0.122473 0.0217,0.05426 0.076,0.08682 0.0558,0.03101 0.16123,0.03101 0.0434,0 0.11317,-0.0186 0.0713,-0.0186 0.0992,-0.03411 h 0.0465 v 0.382922 q -0.0884,0.02325 -0.18758,0.03566 -0.0992,0.01395 -0.2434,0.01395 z" />
    </g>
  </g>
</svg>
