<?xml version="1.0" encoding="UTF-8" standalone="no"?>
<svg
   xmlns:dc="http://purl.org/dc/elements/1.1/"
   xmlns:cc="http://creativecommons.org/ns#"
   xmlns:rdf="http://www.w3.org/1999/02/22-rdf-syntax-ns#"
   xmlns:svg="http://www.w3.org/2000/svg"
   xmlns="http://www.w3.org/2000/svg"
   width="54.518562mm"
   height="54.518562mm"
   viewBox="0 0 54.518562 54.518562"
   version="1.1"
   id="svg8">
  <defs
     id="defs2">
    <rect
       id="rect5195"
       height="77.236954"
       width="227.70203"
       y="148.59428"
       x="212.73569" />
    <rect
       id="rect4858"
       height="66.012207"
       width="66.279465"
       y="68.417511"
       x="71.090065" />
    <rect
       id="rect4806"
       height="179.3287"
       width="124.54125"
       y="242.13383"
       x="87.927193" />
    <rect
       id="rect4738"
       height="45.70076"
       width="107.97138"
       y="50.511364"
       x="188.41541" />
    <rect
       id="rect4702"
       height="65.477692"
       width="113.85101"
       y="124.8085"
       x="83.91835" />
    <rect
       id="rect4696"
       height="66.813972"
       width="69.486534"
       y="188.94992"
       x="73.495369" />
    <rect
       id="rect4690"
       height="31.75"
       width="52.916668"
       y="87.3125"
       x="121.70833" />
    <rect
       id="rect4654"
       height="66.145836"
       width="95.25"
       y="127"
       x="76.729164" />
    <rect
       x="127.48756"
       y="42.362221"
       width="27.261492"
       height="11.22532"
       id="rect90" />
    <rect
       x="61.988094"
       y="177.6488"
       width="144.3869"
       height="90.714287"
       id="rect42" />
    <rect
       x="52.160713"
       y="194.27975"
       width="71.059525"
       height="18.142857"
       id="rect32" />
    <rect
       x="38.55357"
       y="182.18452"
       width="94.494049"
       height="34.773811"
       id="rect26" />
  </defs>
  <metadata
     id="metadata5">
    <rdf:RDF>
      <cc:Work
         rdf:about="">
        <dc:format>image/svg+xml</dc:format>
        <dc:type
           rdf:resource="http://purl.org/dc/dcmitype/StillImage" />
        <dc:title></dc:title>
      </cc:Work>
    </rdf:RDF>
  </metadata>
  <g
     transform="translate(-9.7609329,-3.2666817)"
     id="layer1">
    <text
       xml:space="preserve"
       id="text24"
       style="font-style:normal;font-weight:normal;font-size:10.5833px;line-height:1.25;font-family:sans-serif;white-space:pre;shape-inside:url(#rect26);fill:#000000;fill-opacity:1;stroke:none;" />
    <text
       xml:space="preserve"
       id="text30"
       style="font-style:normal;font-weight:normal;font-size:10.5833px;line-height:1.25;font-family:sans-serif;white-space:pre;shape-inside:url(#rect32);fill:#000000;fill-opacity:1;stroke:none;" />
    <text
       xml:space="preserve"
       style="font-style:normal;font-weight:normal;font-size:10.5833px;line-height:1.25;font-family:sans-serif;fill:#000000;fill-opacity:1;stroke:none;stroke-width:0.264583"
       x="93.738091"
       y="204.86308"
       id="text38"><tspan
         id="tspan36"
         x="93.738091"
         y="204.86308"
         style="stroke-width:0.264583" /></text>
    <text
       xml:space="preserve"
       id="text40"
       style="font-style:normal;font-weight:normal;font-size:10.5833px;line-height:1.25;font-family:sans-serif;white-space:pre;shape-inside:url(#rect42);fill:#000000;fill-opacity:1;stroke:none;" />
    <path
       style="fill:#a0a0a0;stroke:none;stroke-width:0.357143"
       d=""
       id="path64"
       transform="scale(0.26458333)" />
    <path
       style="fill:#a0a0a0;stroke:none;stroke-width:0.357143"
       d=""
       id="path66"
       transform="scale(0.26458333)" />
    <path
       style="fill:#000000;stroke-width:0.357143"
       d=""
       id="path76"
       transform="scale(0.26458333)" />
    <path
       style="fill:#000000;stroke-width:0.357143"
       d=""
       id="path78"
       transform="scale(0.26458333)" />
    <text
       xml:space="preserve"
       id="text88"
       style="font-size:10.5833px;line-height:1.25;font-family:'Sitka Text';-inkscape-font-specification:'Sitka Text';white-space:pre;shape-inside:url(#rect90);" />
    <text
       style="font-size:10.5833px;line-height:1.25;font-family:'Sitka Text';-inkscape-font-specification:'Sitka Text';white-space:pre;shape-inside:url(#rect4654);"
       id="text4652"
       xml:space="preserve" />
    <text
       style="font-size:10.5833px;line-height:1.25;font-family:'Sitka Text';-inkscape-font-specification:'Sitka Text';white-space:pre;shape-inside:url(#rect4690);"
       id="text4688"
       xml:space="preserve" />
    <text
       style="font-size:10.5833px;line-height:1.25;font-family:'Sitka Text';-inkscape-font-specification:'Sitka Text';letter-spacing:-0.238125px;white-space:pre;shape-inside:url(#rect4696);"
       id="text4694"
       xml:space="preserve" />
    <text
       style="font-size:10.5833px;line-height:1.25;font-family:'Sitka Text';-inkscape-font-specification:'Sitka Text';letter-spacing:-0.238125px;white-space:pre;shape-inside:url(#rect4702);"
       id="text4700"
       xml:space="preserve" />
    <text
       style="font-size:10.5833px;line-height:1.25;font-family:'Sitka Text';-inkscape-font-specification:'Sitka Text';letter-spacing:-0.238125px;white-space:pre;shape-inside:url(#rect4738);"
       id="text4736"
       xml:space="preserve" />
    <text
       style="font-size:10.5833px;line-height:1.25;font-family:'Sitka Text';-inkscape-font-specification:'Sitka Text';letter-spacing:-0.238125px;white-space:pre;shape-inside:url(#rect4806);"
       id="text4804"
       xml:space="preserve" />
    <text
       style="font-size:10.5833px;line-height:1.25;font-family:'Sitka Text';-inkscape-font-specification:'Sitka Text';letter-spacing:-0.238125px;white-space:pre;shape-inside:url(#rect4858);"
       id="text4856"
       xml:space="preserve" />
    <circle
       cy="30.525963"
       cx="37.020214"
       id="path2225-9-6-4"
       style="fill:#ffffff;fill-opacity:1;stroke:none;stroke-width:0.481436;stroke-opacity:1"
       r="27.259281" />
    <text
       style="font-size:10.5833px;line-height:1.25;font-family:'Sitka Text';-inkscape-font-specification:'Sitka Text';letter-spacing:-0.238125px;white-space:pre;shape-inside:url(#rect5195);"
       id="text5193"
       xml:space="preserve" />
    <path
       style="fill:#000000;stroke:none;stroke-width:0.238885;stroke-opacity:1"
       d="M 53.59395,37.65129 C 50.183492,36.513066 50.431735,36.84692 46.266643,27.797184 42.71853,20.087998 42.535854,19.751737 41.836197,19.64177 41.29413,19.55659 41.084043,19.38181 41.019323,18.962273 c -0.04791,-0.310637 -0.195144,-0.683127 -0.327179,-0.827758 -0.155747,-0.170621 -0.136847,-0.320294 0.0538,-0.426231 0.188775,-0.104886 0.24189,-0.504229 0.148524,-1.116634 -0.08836,-0.579423 -0.03352,-1.053912 0.139837,-1.209733 0.212286,-0.190848 0.209696,-0.405334 -0.01011,-0.839074 -0.265247,-0.523342 -0.391557,-0.567043 -1.240319,-0.429089 -0.519745,0.08449 -0.974828,0.175381 -1.01129,0.202012 -0.03647,0.02662 0.08571,0.395337 0.271438,0.819326 0.196813,0.449233 0.292989,1.269602 0.230487,1.9661 l -0.107252,1.195202 -0.857046,-0.144534 c -0.967563,-0.163183 -1.083461,0.088 -0.479123,1.038364 0.731126,1.149782 0.148103,7.325139 -0.769459,8.150013 -0.36195,0.325386 -2.07786,0.410309 -3.875587,0.191809 -0.545506,-0.06626 -0.65772,0.05959 -1.007805,1.130896 -0.386718,1.183357 -1.01787,1.795754 -1.547493,1.501492 -0.323756,-0.179882 -0.114481,-1.45726 0.564093,-3.44312 0.444798,-1.301705 0.54125,-1.415621 1.198598,-1.415621 1.084739,0 1.367748,-0.450835 1.019976,-1.624825 -0.724377,-2.445331 -2.223525,-2.341457 -3.941511,0.273081 -0.344143,0.523728 -0.620801,0.672246 -1.252258,0.672246 -0.589967,0 -0.85416,0.1236 -0.970887,0.454215 -0.08818,0.249827 -0.419608,0.73397 -0.73646,1.07588 -0.316851,0.341901 -0.649911,0.982875 -0.740119,1.424379 -0.09018,0.441506 -0.550306,1.358824 -1.022423,2.038488 -0.472114,0.679669 -1.066598,1.536978 -1.321058,1.905148 -0.828296,1.198417 -3.53732,2.757495 -4.02679,2.317472 -0.34234,-0.307753 0.50082,-1.676299 1.374705,-2.231342 0.878831,-0.558173 0.973707,-0.729523 1.264074,-2.283055 0.172663,-0.923773 0.497477,-1.915148 0.721798,-2.203068 0.224321,-0.287919 0.504246,-0.987291 0.622049,-1.554165 0.117812,-0.566883 0.421417,-1.240498 0.674687,-1.49694 0.253273,-0.25644 0.664226,-0.97588 0.913239,-1.598748 0.249004,-0.622868 0.848771,-1.820376 1.332818,-2.661127 0.763078,-1.325402 0.834076,-1.578418 0.534071,-1.903139 -0.246176,-0.266457 -0.346002,-1.078421 -0.346002,-2.814189 0,-2.950947 0.213115,-3.299644 2.78007,-4.548669 1.68838,-0.8215317 1.729192,-0.8626067 1.782453,-1.7941341 0.07561,-1.3223364 0.777694,-2.1038488 1.943097,-2.1629168 1.10403,-0.05599 1.856756,0.6438327 2.087419,1.9405988 0.138809,0.7803717 0.19107,0.8192877 0.987856,0.7356617 0.514389,-0.05401 1.214987,0.08518 1.802974,0.3580617 0.528918,0.245492 1.77211,0.6660847 2.762662,0.9346387 0.990545,0.268561 1.941161,0.640135 2.112484,0.825712 0.171328,0.185584 0.368168,1.049406 0.437425,1.919607 0.06923,0.8702 0.23898,1.582185 0.377158,1.582185 0.411774,0 0.07066,3.28818 -0.409495,3.946919 -0.41125,0.564253 -0.35904,0.710107 2.477423,6.92018 1.593644,3.489082 3.221866,6.986818 3.61827,7.772747 l 0.720733,1.428967 2.698895,0.282035 c 4.01165,0.419214 4.396648,0.626097 4.070816,2.187485 -0.141163,0.676439 -0.263806,0.789329 -0.846521,0.779248 -0.374793,-0.007 -1.411206,-0.25536 -2.303129,-0.55304 z"
       id="path60-1-7-3-5-1-5" />
    <text
       xml:space="preserve"
       style="font-style:normal;font-variant:normal;font-weight:normal;font-stretch:normal;font-size:9.17223px;line-height:0;font-family:'Franklin Gothic Medium';-inkscape-font-specification:'Franklin Gothic Medium, ';letter-spacing:-0.354542px;fill:#b70000;fill-opacity:1;stroke:none;stroke-width:0.264583;stroke-opacity:1"
       x="19.33145"
       y="45.356026"
       id="text82-3-9-1-0-1-2"><tspan
         x="19.33145"
         y="45.356026"
         style="font-style:normal;font-variant:normal;font-weight:normal;font-stretch:normal;font-size:9.17223px;line-height:0.4;font-family:'Bloc Tek';-inkscape-font-specification:'Bloc Tek';fill:#b70000;fill-opacity:1;stroke:none;stroke-width:0.264583;stroke-opacity:1"
         id="tspan84-1-4-9-11-4-3">ISMA</tspan></text>
    <text
       id="text96-2-4-4-7-2-1-1"
       y="48.501049"
       x="19.123297"
       style="font-size:3.175px;line-height:1.25;font-family:'Sitka Text';-inkscape-font-specification:'Sitka Text';letter-spacing:-0.0978958px;stroke:none;stroke-width:0.264583;stroke-opacity:1"
       xml:space="preserve"><tspan
         style="font-style:normal;font-variant:normal;font-weight:bold;font-stretch:normal;font-size:3.175px;font-family:Tahoma;-inkscape-font-specification:'Tahoma Bold';stroke:none;stroke-width:0.264583;stroke-opacity:1"
         y="48.501049"
         x="19.123297"
         id="tspan94-8-3-6-1-6-3-5">hockey management</tspan></text>
  </g>
</svg>
