<?xml version="1.0" encoding="UTF-8" standalone="no"?>
<svg
   xmlns:dc="http://purl.org/dc/elements/1.1/"
   xmlns:cc="http://creativecommons.org/ns#"
   xmlns:rdf="http://www.w3.org/1999/02/22-rdf-syntax-ns#"
   xmlns:svg="http://www.w3.org/2000/svg"
   xmlns="http://www.w3.org/2000/svg"
   width="62.512428mm"
   height="33.403755mm"
   viewBox="0 0 62.512428 33.403755"
   version="1.1"
   id="svg8">
  <defs
     id="defs2">
    <rect
       id="rect5195"
       height="77.236954"
       width="227.70203"
       y="148.59428"
       x="212.73569" />
    <rect
       id="rect4858"
       height="66.012207"
       width="66.279465"
       y="68.417511"
       x="71.090065" />
    <rect
       id="rect4806"
       height="179.3287"
       width="124.54125"
       y="242.13383"
       x="87.927193" />
    <rect
       id="rect4738"
       height="45.70076"
       width="107.97138"
       y="50.511364"
       x="188.41541" />
    <rect
       id="rect4702"
       height="65.477692"
       width="113.85101"
       y="124.8085"
       x="83.91835" />
    <rect
       id="rect4696"
       height="66.813972"
       width="69.486534"
       y="188.94992"
       x="73.495369" />
    <rect
       id="rect4690"
       height="31.75"
       width="52.916668"
       y="87.3125"
       x="121.70833" />
    <rect
       id="rect4654"
       height="66.145836"
       width="95.25"
       y="127"
       x="76.729164" />
    <rect
       x="127.48756"
       y="42.362221"
       width="27.261492"
       height="11.22532"
       id="rect90" />
    <rect
       x="61.988094"
       y="177.6488"
       width="144.3869"
       height="90.714287"
       id="rect42" />
    <rect
       x="52.160713"
       y="194.27975"
       width="71.059525"
       height="18.142857"
       id="rect32" />
    <rect
       x="38.55357"
       y="182.18452"
       width="94.494049"
       height="34.773811"
       id="rect26" />
  </defs>
  <metadata
     id="metadata5">
    <rdf:RDF>
      <cc:Work
         rdf:about="">
        <dc:format>image/svg+xml</dc:format>
        <dc:type
           rdf:resource="http://purl.org/dc/dcmitype/StillImage" />
        <dc:title></dc:title>
      </cc:Work>
    </rdf:RDF>
  </metadata>
  <g
     transform="translate(-107.9841,-52.517399)"
     id="layer1">
    <text
       xml:space="preserve"
       id="text24"
       style="font-style:normal;font-weight:normal;font-size:10.5833px;line-height:1.25;font-family:sans-serif;white-space:pre;shape-inside:url(#rect26);fill:#000000;fill-opacity:1;stroke:none;" />
    <text
       xml:space="preserve"
       id="text30"
       style="font-style:normal;font-weight:normal;font-size:10.5833px;line-height:1.25;font-family:sans-serif;white-space:pre;shape-inside:url(#rect32);fill:#000000;fill-opacity:1;stroke:none;" />
    <text
       xml:space="preserve"
       style="font-style:normal;font-weight:normal;font-size:10.5833px;line-height:1.25;font-family:sans-serif;fill:#000000;fill-opacity:1;stroke:none;stroke-width:0.264583"
       x="93.738091"
       y="204.86308"
       id="text38"><tspan
         id="tspan36"
         x="93.738091"
         y="204.86308"
         style="stroke-width:0.264583" /></text>
    <text
       xml:space="preserve"
       id="text40"
       style="font-style:normal;font-weight:normal;font-size:10.5833px;line-height:1.25;font-family:sans-serif;white-space:pre;shape-inside:url(#rect42);fill:#000000;fill-opacity:1;stroke:none;" />
    <path
       style="fill:#a0a0a0;stroke:none;stroke-width:0.357143"
       d=""
       id="path64"
       transform="scale(0.26458333)" />
    <path
       style="fill:#a0a0a0;stroke:none;stroke-width:0.357143"
       d=""
       id="path66"
       transform="scale(0.26458333)" />
    <path
       style="fill:#000000;stroke-width:0.357143"
       d=""
       id="path76"
       transform="scale(0.26458333)" />
    <path
       style="fill:#000000;stroke-width:0.357143"
       d=""
       id="path78"
       transform="scale(0.26458333)" />
    <text
       xml:space="preserve"
       id="text88"
       style="font-size:10.5833px;line-height:1.25;font-family:'Sitka Text';-inkscape-font-specification:'Sitka Text';white-space:pre;shape-inside:url(#rect90);" />
    <text
       style="font-size:10.5833px;line-height:1.25;font-family:'Sitka Text';-inkscape-font-specification:'Sitka Text';white-space:pre;shape-inside:url(#rect4654);"
       id="text4652"
       xml:space="preserve" />
    <text
       style="font-size:10.5833px;line-height:1.25;font-family:'Sitka Text';-inkscape-font-specification:'Sitka Text';white-space:pre;shape-inside:url(#rect4690);"
       id="text4688"
       xml:space="preserve" />
    <text
       style="font-size:10.5833px;line-height:1.25;font-family:'Sitka Text';-inkscape-font-specification:'Sitka Text';letter-spacing:-0.238125px;white-space:pre;shape-inside:url(#rect4696);"
       id="text4694"
       xml:space="preserve" />
    <text
       style="font-size:10.5833px;line-height:1.25;font-family:'Sitka Text';-inkscape-font-specification:'Sitka Text';letter-spacing:-0.238125px;white-space:pre;shape-inside:url(#rect4702);"
       id="text4700"
       xml:space="preserve" />
    <text
       style="font-size:10.5833px;line-height:1.25;font-family:'Sitka Text';-inkscape-font-specification:'Sitka Text';letter-spacing:-0.238125px;white-space:pre;shape-inside:url(#rect4738);"
       id="text4736"
       xml:space="preserve" />
    <text
       style="font-size:10.5833px;line-height:1.25;font-family:'Sitka Text';-inkscape-font-specification:'Sitka Text';letter-spacing:-0.238125px;white-space:pre;shape-inside:url(#rect4806);"
       id="text4804"
       xml:space="preserve" />
    <text
       style="font-size:10.5833px;line-height:1.25;font-family:'Sitka Text';-inkscape-font-specification:'Sitka Text';letter-spacing:-0.238125px;white-space:pre;shape-inside:url(#rect4858);"
       id="text4856"
       xml:space="preserve" />
    <text
       style="font-size:10.5833px;line-height:1.25;font-family:'Sitka Text';-inkscape-font-specification:'Sitka Text';letter-spacing:-0.238125px;white-space:pre;shape-inside:url(#rect5195);"
       id="text5193"
       xml:space="preserve" />
    <path
       style="fill:#808080;fill-opacity:1;stroke:none;stroke-width:0.238885;stroke-opacity:1"
       d="m 143.35463,84.561834 c -3.41046,-1.138221 -3.16222,-0.804367 -7.32731,-9.854104 -3.54811,-7.709185 -3.73079,-8.045446 -4.43045,-8.155413 -0.54206,-0.08518 -0.75215,-0.25996 -0.81687,-0.679497 -0.0479,-0.310637 -0.19514,-0.683127 -0.32717,-0.827758 -0.15576,-0.170621 -0.13686,-0.320294 0.0538,-0.426231 0.18878,-0.104886 0.24189,-0.504229 0.14853,-1.116634 -0.0884,-0.579423 -0.0335,-1.053912 0.13983,-1.209733 0.21229,-0.190848 0.2097,-0.405334 -0.0101,-0.839074 -0.26524,-0.523342 -0.39155,-0.567043 -1.24032,-0.429089 -0.51974,0.08449 -0.97482,0.175381 -1.01129,0.202012 -0.0365,0.02662 0.0857,0.395337 0.27144,0.819326 0.19681,0.449233 0.29299,1.269602 0.23049,1.9661 l -0.10725,1.195202 -0.85705,-0.144534 c -0.96756,-0.163183 -1.08346,0.088 -0.47912,1.038364 0.73112,1.149782 0.1481,7.325139 -0.76946,8.150013 -0.36195,0.325385 -2.07786,0.410308 -3.87559,0.191808 -0.5455,-0.06626 -0.65772,0.05959 -1.0078,1.130896 -0.38672,1.183357 -1.01787,1.795754 -1.5475,1.501492 -0.32375,-0.179882 -0.11448,-1.45726 0.5641,-3.443119 0.44479,-1.301705 0.54125,-1.415621 1.19859,-1.415621 1.08474,0 1.36775,-0.450835 1.01998,-1.624825 -0.72438,-2.445331 -2.22352,-2.341457 -3.94151,0.273081 -0.34414,0.523728 -0.6208,0.672246 -1.25226,0.672246 -0.58997,0 -0.85416,0.1236 -0.97089,0.454215 -0.0882,0.249827 -0.4196,0.73397 -0.73646,1.07588 -0.31685,0.341901 -0.64991,0.982875 -0.74011,1.424378 -0.0902,0.441506 -0.55031,1.358824 -1.02243,2.038488 -0.47211,0.679669 -1.0666,1.536978 -1.32106,1.905148 -0.82829,1.198418 -3.53732,2.757493 -4.02679,2.317473 -0.34234,-0.307756 0.50082,-1.6763 1.37471,-2.231343 0.87883,-0.558173 0.97371,-0.729523 1.26407,-2.283055 0.17267,-0.923773 0.49748,-1.915147 0.7218,-2.203067 0.22432,-0.287919 0.50425,-0.987291 0.62205,-1.554165 0.11781,-0.566883 0.42142,-1.240498 0.67469,-1.49694 0.25327,-0.25644 0.66422,-0.97588 0.91324,-1.598748 0.249,-0.622868 0.84877,-1.820376 1.33281,-2.661127 0.76308,-1.325402 0.83408,-1.578418 0.53408,-1.903139 -0.24618,-0.266457 -0.34601,-1.078421 -0.34601,-2.814189 0,-2.950947 0.21312,-3.299644 2.78007,-4.548669 1.68838,-0.821532 1.7292,-0.862607 1.78246,-1.794135 0.0756,-1.322338 0.77769,-2.103851 1.94309,-2.162919 1.10403,-0.05599 1.85676,0.643833 2.08742,1.940601 0.13881,0.780372 0.19107,0.819288 0.98786,0.735662 0.51439,-0.05401 1.21499,0.08518 1.80297,0.358062 0.52892,0.245492 1.77211,0.666085 2.76266,0.934639 0.99055,0.268561 1.94117,0.640135 2.11249,0.825712 0.17133,0.185584 0.36817,1.049406 0.43742,1.919607 0.0692,0.8702 0.23898,1.582185 0.37716,1.582185 0.41178,0 0.0707,3.28818 -0.40949,3.946919 -0.41125,0.564253 -0.35904,0.710107 2.47742,6.92018 1.59363,3.489081 3.22186,6.986818 3.61827,7.772746 l 0.72073,1.428967 2.69889,0.282036 c 4.01166,0.419213 4.39665,0.626096 4.07082,2.187485 -0.14116,0.676439 -0.2638,0.789329 -0.84652,0.779245 -0.37479,-0.007 -1.4112,-0.25536 -2.30314,-0.55304 z"
       id="path60-1-7-3-5-1-5-3-4" />
    <text
       xml:space="preserve"
       style="font-style:normal;font-variant:normal;font-weight:normal;font-stretch:normal;font-size:9.17223px;line-height:0;font-family:'Franklin Gothic Medium';-inkscape-font-specification:'Franklin Gothic Medium, ';letter-spacing:-0.354542px;fill:#b70000;fill-opacity:1;stroke:none;stroke-width:0.264583;stroke-opacity:1"
       x="137.09541"
       y="70.840668"
       id="text82-3-9-1-0-1-2-5-8"><tspan
         x="137.09541"
         y="70.840668"
         style="font-style:normal;font-variant:normal;font-weight:normal;font-stretch:normal;font-size:9.17223px;line-height:0.4;font-family:'Bloc Tek';-inkscape-font-specification:'Bloc Tek';fill:#b70000;fill-opacity:1;stroke:none;stroke-width:0.264583;stroke-opacity:1"
         id="tspan84-1-4-9-11-4-3-5-5">ISMA</tspan></text>
    <text
       id="text96-2-4-4-7-2-1-1-8-0"
       y="73.985695"
       x="136.88727"
       style="font-size:3.175px;line-height:1.25;font-family:'Sitka Text';-inkscape-font-specification:'Sitka Text';letter-spacing:-0.0978958px;fill:#ffffff;fill-opacity:1;stroke:none;stroke-width:0.264583;stroke-opacity:1"
       xml:space="preserve"><tspan
         style="font-style:normal;font-variant:normal;font-weight:bold;font-stretch:normal;font-size:3.175px;font-family:Tahoma;-inkscape-font-specification:'Tahoma Bold';fill:#ffffff;fill-opacity:1;stroke:none;stroke-width:0.264583;stroke-opacity:1"
         y="73.985695"
         x="136.88727"
         id="tspan94-8-3-6-1-6-3-5-7-1">hockey management</tspan></text>
  </g>
</svg>
